<svg width="400" height="320" viewBox="0 0 400 320" xmlns="http://www.w3.org/2000/svg">
  <rect x="0" y="0" width="400" height="320" rx="8" fill="#114477" />

  <circle cx="35" cy="35" r="22" fill="white" />
  <circle cx="365" cy="35" r="22" fill="white" />
  <circle cx="35" cy="285" r="22" fill="white" />
  <circle cx="365" cy="285" r="22" fill="white" />

  <g transform="translate(130, 15)">
    <circle cx="15" cy="15" r="14" stroke="#D4AF37" stroke-width="3" fill="white" />
    <circle cx="55" cy="15" r="14" stroke="#D4AF37" stroke-width="3" fill="white" />
    <circle cx="95" cy="15" r="14" stroke="#D4AF37" stroke-width="3" fill="white" />
    <circle cx="135" cy="15" r="14" stroke="#D4AF37" stroke-width="3" fill="white" />
    
    <text x="15" y="48" font-family="Arial, sans-serif" font-size="14" fill="white" text-anchor="middle" font-weight="bold">GND</text>
    <text x="55" y="48" font-family="Arial, sans-serif" font-size="14" fill="white" text-anchor="middle" font-weight="bold">VCC</text>
    <text x="95" y="48" font-family="Arial, sans-serif" font-size="14" fill="white" text-anchor="middle" font-weight="bold">SCL</text>
    <text x="135" y="48" font-family="Arial, sans-serif" font-size="14" fill="white" text-anchor="middle" font-weight="bold">SDA</text>
  </g>

  <g transform="translate(10, 65)">
    <rect x="0" y="0" width="380" height="220" fill="#000000" />
    <rect x="15" y="15" width="350" height="190" fill="none" stroke="#333333" stroke-width="1" />
    
    <rect x="110" y="220" width="160" height="15" fill="#333333" />
    <rect x="115" y="235" width="150" height="40" rx="5" fill="#1a1a1a" />
    <rect x="115" y="240" width="5" height="15" fill="#D4AF37" />
    <rect x="260" y="240" width="5" height="15" fill="#D4AF37" />
  </g>
</svg>